<svg width="64" height="64" viewBox="0 0 64 64" fill="none" xmlns="http://www.w3.org/2000/svg">
<path d="M2 56H62L57.021 16.143C56.984 12.797 57.069 10.944 57.069 10.944C56.293 11.183 55.138 11.275 53.755 11.275C53.521 11.275 53.276 11.271 53.027 11.266C53.022 9.177 53.066 8 53.066 8C51.865 9.58 49.301 9.982 46.378 9.982C43.343 9.982 39.922 9.549 37.234 9.549C33.087 9.549 32.201 12.324 32.009 13.517C31.817 12.319 30.927 9.556 26.789 9.556C24.101 9.556 20.682 9.989 17.648 9.989C14.722 9.989 12.158 9.587 10.957 8.005C10.957 8.005 11.001 9.181 10.995 11.265C10.748 11.269 10.502 11.274 10.267 11.274C8.882 11.274 7.73 11.182 6.954 10.943C6.954 10.943 7.035 12.714 7.004 15.929L2 56ZM53.755 13.137C54.26 13.137 54.723 13.125 55.148 13.102C55.096 18.535 55.327 33.377 58.637 52.582C58.0238 52.4836 57.4126 52.3726 56.804 52.249C57.196 52.086 57.507 51.864 57.717 51.565C53.923 35.494 53.16 20.637 53.046 13.127C53.286 13.132 53.525 13.137 53.755 13.137V13.137ZM37.624 12.111C39.655 12.111 42.373 12.35 45.248 12.603C47.256 12.78 49.307 12.958 51.178 13.058C51.293 20.453 52.024 34.963 55.585 50.666C55.316 50.711 54.943 50.746 54.429 50.746C52.529 50.746 49.807 50.263 47.175 49.795C44.211 49.269 41.147 48.724 38.647 48.724C36.709 48.724 35.183 49.088 33.98 49.645C33.934 49.664 33.881 49.678 33.838 49.698L33.831 14.687C33.866 14.193 34.214 12.111 37.624 12.111V12.111ZM12.848 13.058C14.719 12.958 16.768 12.78 18.775 12.603C21.651 12.351 24.369 12.111 26.402 12.111C29.701 12.111 30.142 14.039 30.193 14.728L30.184 49.697C30.105 49.662 30.011 49.634 29.928 49.601C28.74 49.072 27.254 48.726 25.373 48.726C22.873 48.726 19.809 49.272 16.846 49.798C14.212 50.267 11.491 50.75 9.591 50.75C9.077 50.75 8.703 50.715 8.438 50.671C12 34.966 12.731 20.451 12.848 13.058V13.058ZM8.877 13.102C9.303 13.125 9.765 13.137 10.27 13.137C10.5 13.137 10.74 13.132 10.98 13.128C10.865 20.636 10.101 35.497 6.305 51.571C6.514 51.868 6.822 52.09 7.209 52.252C6.588 52.376 5.977 52.489 5.383 52.583C8.696 33.377 8.928 18.535 8.877 13.102" fill="black"/>
</svg>
