<svg width="21" height="21" viewBox="0 0 21 21" fill="none" xmlns="http://www.w3.org/2000/svg">
<path d="M6.11475 11.3486L9.55312 15.0112L15.6823 6.71436" stroke="#91AC00" stroke-width="2.33832" stroke-linecap="round" stroke-linejoin="round"/>
<path fill-rule="evenodd" clip-rule="evenodd" d="M10.8982 19.4724C15.6532 19.4724 19.5078 15.6178 19.5078 10.8628C19.5078 6.10778 15.6532 2.2531 10.8982 2.2531C6.14318 2.2531 2.2885 6.10778 2.2885 10.8628C2.2885 15.6178 6.14318 19.4724 10.8982 19.4724ZM10.8982 20.8991C16.4411 20.8991 20.9345 16.4057 20.9345 10.8628C20.9345 5.31984 16.4411 0.826416 10.8982 0.826416C5.35524 0.826416 0.861816 5.31984 0.861816 10.8628C0.861816 16.4057 5.35524 20.8991 10.8982 20.8991Z" fill="#91AC00"/>
</svg>
