<svg width="32" height="33" viewBox="0 0 32 33" fill="none" xmlns="http://www.w3.org/2000/svg">
<path d="M16.2155 32.0667C7.52392 32.1044 0.377233 24.8698 0.584475 16.0338C0.779156 7.61852 7.75 0.666511 16.4165 0.760712C25.0013 0.854912 32.104 8.0016 31.8716 16.8502C31.6518 25.2278 24.7375 32.1107 16.2155 32.0667ZM2.48733 16.4357C2.55641 24.3046 8.93693 30.3648 16.473 30.233C23.7704 30.1011 29.9562 24.1539 29.9562 16.4169C29.9562 8.54796 23.5255 2.4626 15.9643 2.60704C8.66689 2.73893 2.53757 8.70497 2.48733 16.4357Z" fill="#A45A04"/>
<path d="M12.9491 27.432C12.9491 23.7331 12.9491 20.0656 12.9491 16.3603C12.1327 16.3603 11.3414 16.3603 10.5312 16.3603C10.5312 15.1043 10.5312 13.886 10.5312 12.63C10.638 12.6237 10.7448 12.6111 10.8578 12.6111C11.4419 12.6111 12.0322 12.5986 12.6162 12.6174C12.8737 12.6237 12.9616 12.5546 12.9553 12.2909C12.9428 11.3363 12.9428 10.388 12.9491 9.43344C12.9553 8.35956 13.2568 7.38615 14.023 6.60742C14.764 5.85382 15.7123 5.44562 16.7422 5.38282C18.4001 5.28862 20.0644 5.30118 21.7286 5.26978C21.7474 5.26978 21.7662 5.28862 21.8039 5.30746C21.8039 6.56974 21.8039 7.83831 21.8039 9.13828C21.6846 9.14456 21.5716 9.15084 21.4648 9.15084C20.7112 9.15084 19.9576 9.15084 19.204 9.15084C18.4441 9.15712 17.9982 9.60928 17.9982 10.3566C17.9982 11.0663 17.9982 11.7822 18.0045 12.4918C18.0045 12.5107 18.0171 12.5295 18.0359 12.5986C19.2793 12.5986 20.5354 12.5986 21.8542 12.5986C21.6909 13.8734 21.5402 15.0918 21.3769 16.3541C20.2402 16.3541 19.1286 16.3541 17.9857 16.3541C17.9857 20.0718 17.9857 23.7519 17.9857 27.4446C16.2963 27.432 14.651 27.432 12.9491 27.432Z" fill="#A45A04"/>
</svg>
