<svg width="33" height="23" viewBox="0 0 33 23" fill="none" xmlns="http://www.w3.org/2000/svg">
<mask id="path-1-inside-1_2_232" fill="white">
<path fill-rule="evenodd" clip-rule="evenodd" d="M6.95703 0.952637C3.64332 0.952637 0.957031 3.63893 0.957031 6.95264V15.655C0.957031 18.9687 3.64332 21.655 6.95703 21.655H24.7478L30.7597 22.9037C31.5134 23.0602 32.1539 22.3421 31.9126 21.6111L31.0683 19.0532C31.7334 18.0871 32.1227 16.9165 32.1227 15.655V6.95264C32.1227 3.63893 29.4364 0.952637 26.1227 0.952637H6.95703Z"/>
</mask>
<path fill-rule="evenodd" clip-rule="evenodd" d="M6.95703 0.952637C3.64332 0.952637 0.957031 3.63893 0.957031 6.95264V15.655C0.957031 18.9687 3.64332 21.655 6.95703 21.655H24.7478L30.7597 22.9037C31.5134 23.0602 32.1539 22.3421 31.9126 21.6111L31.0683 19.0532C31.7334 18.0871 32.1227 16.9165 32.1227 15.655V6.95264C32.1227 3.63893 29.4364 0.952637 26.1227 0.952637H6.95703Z" fill="white"/>
<path d="M24.7478 21.655L25.1545 19.6968L24.9533 19.655H24.7478V21.655ZM30.7597 22.9037L31.1664 20.9455H31.1664L30.7597 22.9037ZM31.9126 21.6111L30.0134 22.238V22.238L31.9126 21.6111ZM31.0683 19.0532L29.4209 17.9191L28.8578 18.7371L29.1691 19.68L31.0683 19.0532ZM2.95703 6.95264C2.95703 4.7435 4.74789 2.95264 6.95703 2.95264V-1.04736C2.53875 -1.04736 -1.04297 2.53436 -1.04297 6.95264H2.95703ZM2.95703 15.655V6.95264H-1.04297V15.655H2.95703ZM6.95703 19.655C4.74789 19.655 2.95703 17.8642 2.95703 15.655H-1.04297C-1.04297 20.0733 2.53875 23.655 6.95703 23.655V19.655ZM24.7478 19.655H6.95703V23.655H24.7478V19.655ZM31.1664 20.9455L25.1545 19.6968L24.3411 23.6132L30.353 24.8619L31.1664 20.9455ZM30.0134 22.238C29.7721 21.507 30.4127 20.7889 31.1664 20.9455L30.353 24.8619C32.6141 25.3315 34.5357 23.1773 33.8118 20.9843L30.0134 22.238ZM29.1691 19.68L30.0134 22.238L33.8119 20.9843L32.9675 18.4263L29.1691 19.68ZM30.1227 15.655C30.1227 16.4988 29.8637 17.276 29.4209 17.9191L32.7157 20.1872C33.603 18.8983 34.1227 17.3343 34.1227 15.655H30.1227ZM30.1227 6.95264V15.655H34.1227V6.95264H30.1227ZM26.1227 2.95264C28.3318 2.95264 30.1227 4.7435 30.1227 6.95264H34.1227C34.1227 2.53436 30.541 -1.04736 26.1227 -1.04736V2.95264ZM6.95703 2.95264H26.1227V-1.04736H6.95703V2.95264Z" fill="#78675D" mask="url(#path-1-inside-1_2_232)"/>
</svg>
