<svg width="59" height="21" viewBox="0 0 59 21" fill="none" xmlns="http://www.w3.org/2000/svg">
<mask id="path-1-inside-1_2_224" fill="white">
<path fill-rule="evenodd" clip-rule="evenodd" d="M14.375 6.35288C14.7065 7.46705 15.4497 8.49214 16.6662 9.19932L28.5165 16.088C29.4658 16.6399 30.6408 16.629 31.5797 16.0596L42.971 9.15198C44.8205 8.03047 45.5393 6.17238 45.3608 4.4126C45.4783 4.88118 45.5406 5.37162 45.5406 5.87663V14.579C45.5406 17.8927 42.8544 20.579 39.5406 20.579H20.375C17.0613 20.579 14.375 17.8927 14.375 14.579V6.35288Z"/>
</mask>
<path fill-rule="evenodd" clip-rule="evenodd" d="M14.375 6.35288C14.7065 7.46705 15.4497 8.49214 16.6662 9.19932L28.5165 16.088C29.4658 16.6399 30.6408 16.629 31.5797 16.0596L42.971 9.15198C44.8205 8.03047 45.5393 6.17238 45.3608 4.4126C45.4783 4.88118 45.5406 5.37162 45.5406 5.87663V14.579C45.5406 17.8927 42.8544 20.579 39.5406 20.579H20.375C17.0613 20.579 14.375 17.8927 14.375 14.579V6.35288Z" fill="white"/>
<path d="M16.6662 9.19932L15.9123 10.4961H15.9123L16.6662 9.19932ZM14.375 6.35288L15.8127 5.92511L12.875 6.35288H14.375ZM28.5165 16.088L27.7626 17.3849L27.7626 17.3849L28.5165 16.088ZM31.5797 16.0596L32.3575 17.3422L32.3575 17.3422L31.5797 16.0596ZM42.971 9.15198L42.1932 7.86937L42.971 9.15198ZM45.3608 4.4126L46.8157 4.04777L43.8684 4.56398L45.3608 4.4126ZM17.42 7.90252C16.5375 7.38946 16.0365 6.67711 15.8127 5.92511L12.9373 6.78065C13.3766 8.25699 14.3619 9.59483 15.9123 10.4961L17.42 7.90252ZM29.2703 14.7912L17.42 7.90251L15.9123 10.4961L27.7626 17.3849L29.2703 14.7912ZM30.8019 14.777C30.3325 15.0617 29.745 15.0672 29.2703 14.7912L27.7626 17.3849C29.1866 18.2126 30.9491 18.1963 32.3575 17.3422L30.8019 14.777ZM42.1932 7.86937L30.8019 14.777L32.3575 17.3422L43.7488 10.4346L42.1932 7.86937ZM43.8684 4.56398C43.9939 5.80056 43.5041 7.07446 42.1932 7.86937L43.7488 10.4346C46.1368 8.98649 47.0847 6.54421 46.8531 4.26121L43.8684 4.56398ZM43.9058 4.77743C43.9936 5.12766 44.0406 5.4956 44.0406 5.87663H47.0406C47.0406 5.24763 46.9629 4.63469 46.8157 4.04777L43.9058 4.77743ZM44.0406 5.87663V14.579H47.0406V5.87663H44.0406ZM44.0406 14.579C44.0406 17.0643 42.0259 19.079 39.5406 19.079V22.079C43.6828 22.079 47.0406 18.7212 47.0406 14.579H44.0406ZM39.5406 19.079H20.375V22.079H39.5406V19.079ZM20.375 19.079C17.8897 19.079 15.875 17.0643 15.875 14.579H12.875C12.875 18.7212 16.2329 22.079 20.375 22.079V19.079ZM15.875 14.579V6.35288H12.875V14.579H15.875Z" fill="#78675D" mask="url(#path-1-inside-1_2_224)"/>
<path d="M17.1369 8.88059C13.3835 6.69868 14.9313 0.956299 19.2728 0.956299H40.4722C44.7722 0.956299 46.3527 6.61076 42.6759 8.84035L31.2846 15.748C30.5804 16.175 29.6991 16.1832 28.9871 15.7693L17.1369 8.88059Z" fill="white" stroke="#78675D" stroke-width="1.5"/>
</svg>
