<svg width="27" height="27" viewBox="0 0 27 27" fill="none" xmlns="http://www.w3.org/2000/svg">
<path d="M5.02415 0C2.27194 0 0 2.27194 0 5.02415V21.9759C0 24.7281 2.27194 27 5.02415 27H21.9759C24.7281 27 27 24.7281 27 21.9759V5.02415C27 2.27194 24.7281 0 21.9759 0H5.02415ZM5.02415 2.45455H21.9759C23.4013 2.45455 24.5455 3.59872 24.5455 5.02415V21.9759C24.5455 23.4013 23.4013 24.5455 21.9759 24.5455H5.02415C3.59872 24.5455 2.45455 23.4013 2.45455 21.9759V5.02415C2.45455 3.59872 3.59872 2.45455 5.02415 2.45455ZM13.1548 8.85938C12.254 8.85078 11.4775 8.87717 11.0455 9.08949C10.7583 9.23063 10.5269 9.53131 10.6619 9.54972C10.8288 9.57181 11.2289 9.66078 11.429 9.93324C11.6879 10.2855 11.6591 11.0838 11.6591 11.0838C11.6591 11.0838 11.8097 13.2671 11.3139 13.5384C10.974 13.7237 10.514 13.3141 9.51136 11.5824C8.99714 10.6951 8.62926 9.74148 8.62926 9.74148C8.62926 9.74148 8.53292 9.53284 8.39915 9.43466C8.23715 9.31561 8.01562 9.28125 8.01562 9.28125L5.63778 9.3196C5.63778 9.3196 5.27052 9.31592 5.1392 9.47301C5.02139 9.61292 5.10085 9.89489 5.10085 9.89489C5.10085 9.89489 6.99975 14.3146 9.12784 16.5298C11.0817 18.5597 13.3082 18.4091 13.3082 18.4091H14.3054C14.3054 18.4091 14.611 18.3842 14.7656 18.2173C14.908 18.0639 14.8807 17.7571 14.8807 17.7571C14.8807 17.7571 14.8696 16.4206 15.4943 16.223C16.1104 16.0279 16.9176 17.5267 17.7571 18.1023C18.3916 18.538 18.8693 18.4474 18.8693 18.4474L21.0938 18.4091C21.0938 18.4091 22.2633 18.3348 21.7074 17.4119C21.662 17.3371 21.4021 16.7412 20.0582 15.4943C18.6518 14.1885 18.8236 14.3775 20.5185 12.1193C21.5506 10.7435 21.9897 9.90931 21.8608 9.54972C21.7381 9.20731 20.9787 9.3196 20.9787 9.3196H18.4474C18.4474 9.3196 18.241 9.31285 18.1023 9.39631C17.966 9.47731 17.8722 9.66477 17.8722 9.66477C17.8722 9.66477 17.4843 10.715 16.9517 11.6207C15.8275 13.5304 15.3716 13.6178 15.1875 13.5C14.7592 13.2239 14.8807 12.404 14.8807 11.8125C14.8807 9.96177 15.1709 9.17448 14.3438 8.97443C14.0688 8.90816 13.8581 8.86674 13.1548 8.85938Z" fill="#A45A04"/>
</svg>
