<svg width="20" height="20" viewBox="0 0 20 20" fill="none" xmlns="http://www.w3.org/2000/svg">
<path d="M10 18.75C7.67936 18.75 5.45376 17.8281 3.81282 16.1872C2.17187 14.5462 1.25 12.3206 1.25 10C1.25 7.67936 2.17187 5.45376 3.81282 3.81282C5.45376 2.17187 7.67936 1.25 10 1.25C12.3206 1.25 14.5462 2.17187 16.1872 3.81282C17.8281 5.45376 18.75 7.67936 18.75 10C18.75 12.3206 17.8281 14.5462 16.1872 16.1872C14.5462 17.8281 12.3206 18.75 10 18.75ZM10 20C12.6522 20 15.1957 18.9464 17.0711 17.0711C18.9464 15.1957 20 12.6522 20 10C20 7.34784 18.9464 4.8043 17.0711 2.92893C15.1957 1.05357 12.6522 0 10 0C7.34784 0 4.8043 1.05357 2.92893 2.92893C1.05357 4.8043 0 7.34784 0 10C0 12.6522 1.05357 15.1957 2.92893 17.0711C4.8043 18.9464 7.34784 20 10 20V20Z" fill="#E43333"/>
<path d="M5.80764 5.8074C5.8657 5.74919 5.93467 5.70301 6.0106 5.67151C6.08653 5.64 6.16793 5.62378 6.25014 5.62378C6.33235 5.62378 6.41375 5.64 6.48968 5.67151C6.56561 5.70301 6.63458 5.74919 6.69264 5.8074L10.0001 9.11615L13.3076 5.8074C13.3658 5.74929 13.4347 5.70319 13.5107 5.67174C13.5866 5.64029 13.668 5.62411 13.7501 5.62411C13.8323 5.62411 13.9137 5.64029 13.9896 5.67174C14.0655 5.70319 14.1345 5.74929 14.1926 5.8074C14.2508 5.86551 14.2968 5.93449 14.3283 6.01042C14.3597 6.08634 14.3759 6.16772 14.3759 6.2499C14.3759 6.33208 14.3597 6.41345 14.3283 6.48938C14.2968 6.5653 14.2508 6.63429 14.1926 6.6924L10.8839 9.9999L14.1926 13.3074C14.2508 13.3655 14.2968 13.4345 14.3283 13.5104C14.3597 13.5863 14.3759 13.6677 14.3759 13.7499C14.3759 13.8321 14.3597 13.9135 14.3283 13.9894C14.2968 14.0653 14.2508 14.1343 14.1926 14.1924C14.1345 14.2505 14.0655 14.2966 13.9896 14.3281C13.9137 14.3595 13.8323 14.3757 13.7501 14.3757C13.668 14.3757 13.5866 14.3595 13.5107 14.3281C13.4347 14.2966 13.3658 14.2505 13.3076 14.1924L10.0001 10.8836L6.69264 14.1924C6.63453 14.2505 6.56554 14.2966 6.48962 14.3281C6.4137 14.3595 6.33232 14.3757 6.25014 14.3757C6.16796 14.3757 6.08659 14.3595 6.01066 14.3281C5.93474 14.2966 5.86575 14.2505 5.80764 14.1924C5.74953 14.1343 5.70343 14.0653 5.67199 13.9894C5.64054 13.9135 5.62435 13.8321 5.62435 13.7499C5.62435 13.6677 5.64054 13.5863 5.67199 13.5104C5.70343 13.4345 5.74953 13.3655 5.80764 13.3074L9.11639 9.9999L5.80764 6.6924C5.74944 6.63434 5.70326 6.56537 5.67175 6.48944C5.64024 6.41351 5.62402 6.33211 5.62402 6.2499C5.62402 6.16769 5.64024 6.08629 5.67175 6.01035C5.70326 5.93442 5.74944 5.86545 5.80764 5.8074Z" fill="#E43333"/>
</svg>
