<svg width="31" height="32" viewBox="0 0 31 32" fill="none" xmlns="http://www.w3.org/2000/svg">
<path d="M6.09814 19.4388C6.09814 21.1122 7.40476 22.5188 9.08587 22.5621C9.09344 22.5631 9.10155 22.5642 9.1102 22.5654C9.17199 22.5737 9.26145 22.585 9.38121 22.5983C9.62067 22.6247 9.98172 22.6589 10.4856 22.6928C11.493 22.7605 13.0738 22.827 15.3983 22.827C17.7098 22.827 19.3193 22.7605 20.3579 22.6929C20.8773 22.6591 21.2542 22.6251 21.5051 22.5989C21.6306 22.5858 21.7246 22.5747 21.7892 22.5666C21.8016 22.565 21.813 22.5635 21.8233 22.5622C23.5069 22.5218 24.8158 21.1138 24.8158 19.4388V12.4291C24.8158 10.7541 23.5069 9.34607 21.8233 9.30567C21.813 9.30433 21.8016 9.30287 21.7891 9.3013C21.7245 9.29315 21.6305 9.28203 21.505 9.26894C21.254 9.24277 20.8769 9.20872 20.3572 9.17494C19.318 9.1074 17.7072 9.04089 15.3932 9.04089C13.0713 9.04089 11.4917 9.10739 10.4849 9.17509C9.98135 9.20895 9.62046 9.24315 9.38109 9.2696C9.26137 9.28282 9.17194 9.29412 9.11017 9.30247C9.10153 9.30364 9.09343 9.30475 9.08587 9.30581C7.40436 9.34904 6.09814 10.756 6.09814 12.4291V19.4388ZM1.64844 16C1.64844 8.09783 7.87548 1.73828 15.4997 1.73828C23.1243 1.73828 29.3516 8.09786 29.3516 16C29.3516 23.902 23.1243 30.2618 15.4997 30.2618C7.87549 30.2618 1.64844 23.902 1.64844 16Z" stroke="#995300" stroke-width="2"/>
<path d="M12.9258 19.2975L18.5635 15.9527L12.9258 12.6079V19.2975Z" fill="#995300"/>
</svg>
