<svg width="31" height="18" viewBox="0 0 31 18" fill="none" xmlns="http://www.w3.org/2000/svg">
<path d="M7.58701 14.8188L7.57653 10.428L5.4178 14.0434H4.66329L2.50455 10.5119V14.8188H0.911699V7.48334H2.31592L5.0615 12.0418L7.76516 7.48334H9.16939L9.17987 14.8188H7.58701ZM16.9544 14.1901C16.605 14.4276 16.1649 14.6128 15.634 14.7455C15.11 14.8782 14.5511 14.9446 13.9573 14.9446C13.2167 14.9446 12.588 14.8538 12.071 14.6721C11.554 14.4835 11.1628 14.225 10.8973 13.8967C10.6318 13.5613 10.4991 13.1806 10.4991 12.7544C10.4991 12.3632 10.6074 12.0174 10.824 11.717C11.0405 11.4166 11.3375 11.193 11.7147 11.0463C11.4283 10.8926 11.2047 10.683 11.044 10.4175C10.8903 10.1521 10.8135 9.85515 10.8135 9.5268C10.8135 9.12859 10.9357 8.76531 11.1803 8.43696C11.4248 8.1086 11.7951 7.84662 12.2911 7.65101C12.7871 7.45539 13.3949 7.35759 14.1145 7.35759C14.5895 7.35759 15.0541 7.40649 15.5082 7.5043C15.9623 7.59512 16.357 7.72087 16.6924 7.88155L16.2208 9.18099C15.5781 8.88058 14.8969 8.73038 14.1773 8.73038C13.6324 8.73038 13.2202 8.81421 12.9408 8.98188C12.6683 9.14256 12.5321 9.36263 12.5321 9.64207C12.5321 9.90056 12.6229 10.0997 12.8046 10.2394C12.9932 10.3721 13.2761 10.4385 13.6534 10.4385H15.6549V11.7799H13.5486C13.1224 11.7799 12.7941 11.8532 12.5635 11.9999C12.333 12.1466 12.2177 12.3597 12.2177 12.6392C12.2177 12.9326 12.3644 13.1631 12.6578 13.3308C12.9583 13.4915 13.4158 13.5718 14.0306 13.5718C14.4638 13.5718 14.8969 13.5159 15.3301 13.4041C15.7632 13.2854 16.13 13.1212 16.4304 12.9116L16.9544 14.1901ZM25.8302 13.4356V16.3383H24.2583V14.8188H18.8929V16.3383H17.3211L17.3315 13.4356H18.2118V10.69C18.2118 9.9844 18.3515 9.38358 18.631 8.88756C18.9104 8.38456 19.3016 8.00381 19.8046 7.74532C20.3146 7.48683 20.905 7.35759 21.5756 7.35759C22.2463 7.35759 22.8332 7.48683 23.3362 7.74532C23.8462 8.00381 24.2409 8.38456 24.5203 8.88756C24.7998 9.38358 24.9395 9.9844 24.9395 10.69V13.4356H25.8302ZM23.2314 13.4356V10.5433C23.2314 9.97043 23.0847 9.53728 22.7912 9.24386C22.5048 8.95044 22.0996 8.80373 21.5756 8.80373C21.0587 8.80373 20.65 8.95044 20.3496 9.24386C20.0561 9.53728 19.9094 9.97043 19.9094 10.5433V13.4356H23.2314Z" fill="#9777D0" fill-opacity="0.4"/>
<path d="M11.0431 10.6274L11.0326 6.23662L8.87385 9.85197H8.11934L5.96061 6.32045V10.6274H4.36775V3.29193H5.77198L8.51756 7.85043L11.2212 3.29193H12.6254L12.6359 10.6274H11.0431ZM20.4104 9.99868C20.0611 10.2362 19.621 10.4213 19.09 10.5541C18.5661 10.6868 18.0072 10.7532 17.4133 10.7532C16.6728 10.7532 16.044 10.6624 15.5271 10.4807C15.0101 10.2921 14.6189 10.0336 14.3534 9.70526C14.0879 9.36993 13.9552 8.98918 13.9552 8.56302C13.9552 8.17179 14.0635 7.82598 14.28 7.52557C14.4966 7.22516 14.7935 7.0016 15.1708 6.85489C14.8843 6.7012 14.6608 6.49161 14.5001 6.22614C14.3464 5.96066 14.2695 5.66375 14.2695 5.3354C14.2695 4.93718 14.3918 4.5739 14.6363 4.24555C14.8808 3.9172 15.2511 3.65522 15.7471 3.4596C16.2431 3.26399 16.8509 3.16618 17.5705 3.16618C18.0456 3.16618 18.5102 3.21508 18.9643 3.31289C19.4184 3.40371 19.8131 3.52946 20.1484 3.69015L19.6769 4.98958C19.0341 4.68917 18.353 4.53897 17.6334 4.53897C17.0885 4.53897 16.6763 4.6228 16.3968 4.79047C16.1244 4.95115 15.9881 5.17122 15.9881 5.45067C15.9881 5.70916 16.079 5.90826 16.2606 6.04799C16.4492 6.18073 16.7322 6.24709 17.1094 6.24709H19.111V7.58844H17.0046C16.5785 7.58844 16.2501 7.6618 16.0196 7.80851C15.789 7.95522 15.6738 8.1683 15.6738 8.44775C15.6738 8.74117 15.8205 8.97171 16.1139 9.13938C16.4143 9.30006 16.8719 9.3804 17.4867 9.3804C17.9198 9.3804 18.353 9.32452 18.7861 9.21274C19.2193 9.09397 19.586 8.9298 19.8864 8.72021L20.4104 9.99868ZM29.2863 9.24417V12.1469H27.7144V10.6274H22.349V12.1469H20.7771L20.7876 9.24417H21.6678V6.4986C21.6678 5.79299 21.8076 5.19218 22.087 4.69616C22.3665 4.19315 22.7577 3.8124 23.2607 3.55392C23.7707 3.29543 24.361 3.16618 25.0317 3.16618C25.7024 3.16618 26.2892 3.29543 26.7922 3.55392C27.3022 3.8124 27.6969 4.19315 27.9764 4.69616C28.2558 5.19218 28.3956 5.79299 28.3956 6.4986V9.24417H29.2863ZM26.6874 9.24417V6.35189C26.6874 5.77902 26.5407 5.34588 26.2473 5.05246C25.9609 4.75903 25.5557 4.61232 25.0317 4.61232C24.5147 4.61232 24.106 4.75903 23.8056 5.05246C23.5122 5.34588 23.3655 5.77902 23.3655 6.35189V9.24417H26.6874Z" fill="#9777D0"/>
</svg>
