<svg width="41" height="42" viewBox="0 0 41 42" fill="none" xmlns="http://www.w3.org/2000/svg">
<path d="M12.1167 15.333C12.1167 14.7658 12.2421 14.2968 12.4929 13.926C12.7547 13.5551 13.131 13.1461 13.6218 12.6989C13.9818 12.3717 14.2435 12.099 14.4071 11.8809C14.5816 11.6518 14.6689 11.3955 14.6689 11.1119C14.6689 10.7084 14.5053 10.3921 14.1781 10.163C13.8618 9.92307 13.4364 9.80309 12.902 9.80309C12.3893 9.80309 11.9312 9.91216 11.5277 10.1303C11.135 10.3375 10.8024 10.632 10.5297 11.0138L8.55005 9.85218C9.00814 9.15412 9.62439 8.61422 10.3988 8.23248C11.1841 7.85073 12.1112 7.65986 13.1801 7.65986C14.4344 7.65986 15.4379 7.92708 16.1904 8.46153C16.9539 8.99597 17.3357 9.73765 17.3357 10.6866C17.3357 11.1338 17.2593 11.5264 17.1066 11.8645C16.9648 12.2026 16.7849 12.4917 16.5667 12.7316C16.3595 12.9607 16.0868 13.2279 15.7487 13.5333C15.3451 13.8932 15.0507 14.1986 14.8652 14.4495C14.6798 14.6895 14.5871 14.9839 14.5871 15.333H12.1167ZM13.3601 19.4395C12.9129 19.4395 12.5366 19.2977 12.2312 19.0141C11.9367 18.7196 11.7894 18.3651 11.7894 17.9507C11.7894 17.5362 11.9367 17.1926 12.2312 16.9199C12.5257 16.6364 12.902 16.4946 13.3601 16.4946C13.8182 16.4946 14.1944 16.6364 14.4889 16.9199C14.7834 17.1926 14.9307 17.5362 14.9307 17.9507C14.9307 18.3651 14.778 18.7196 14.4726 19.0141C14.1781 19.2977 13.8072 19.4395 13.3601 19.4395Z" fill="#9777D0"/>
<path d="M19.7539 27.3187L23.7635 31.5897L30.9109 21.9146" stroke="#9777D0" stroke-width="2.72676" stroke-linecap="round" stroke-linejoin="round"/>
<path fill-rule="evenodd" clip-rule="evenodd" d="M13.9873 23.8684C13.8685 23.8724 13.7492 23.8744 13.6294 23.8744C7.91865 23.8744 3.28916 19.2449 3.28916 13.5342C3.28916 7.82343 7.91865 3.19395 13.6294 3.19395C19.3402 3.19395 23.9696 7.82343 23.9696 13.5342C23.9696 14.0811 23.9272 14.618 23.8454 15.142C24.3012 15.0841 24.7653 15.0525 25.2359 15.0487C25.3 14.5529 25.333 14.0474 25.333 13.5342C25.333 7.07046 20.0931 1.83057 13.6294 1.83057C7.16567 1.83057 1.92578 7.07046 1.92578 13.5342C1.92578 19.9979 7.16567 25.2378 13.6294 25.2378C13.6618 25.2378 13.6941 25.2377 13.7265 25.2374C13.7866 24.7719 13.8741 24.315 13.9873 23.8684Z" fill="#9777D0"/>
<path fill-rule="evenodd" clip-rule="evenodd" d="M25.3325 37.0922C31.0433 37.0922 35.6728 32.4627 35.6728 26.752C35.6728 21.0412 31.0433 16.4117 25.3325 16.4117C19.6218 16.4117 14.9923 21.0412 14.9923 26.752C14.9923 32.4627 19.6218 37.0922 25.3325 37.0922ZM25.3325 38.4556C31.7963 38.4556 37.0361 33.2157 37.0361 26.752C37.0361 20.2882 31.7963 15.0483 25.3325 15.0483C18.8688 15.0483 13.6289 20.2882 13.6289 26.752C13.6289 33.2157 18.8688 38.4556 25.3325 38.4556Z" fill="#9777D0"/>
<g opacity="0.5" filter="url(#filter0_f_436_74)">
<path d="M13.1049 16.4985C13.1049 15.9313 13.2304 15.4623 13.4812 15.0915C13.743 14.7206 14.1193 14.3116 14.6101 13.8644C14.97 13.5372 15.2318 13.2646 15.3954 13.0464C15.5699 12.8174 15.6572 12.5611 15.6572 12.2775C15.6572 11.8739 15.4936 11.5576 15.1664 11.3286C14.8501 11.0886 14.4247 10.9686 13.8902 10.9686C13.3776 10.9686 12.9195 11.0777 12.516 11.2958C12.1233 11.5031 11.7906 11.7976 11.518 12.1793L9.53833 11.0177C9.99642 10.3197 10.6127 9.77975 11.3871 9.398C12.1724 9.01626 13.0995 8.82538 14.1684 8.82538C15.4227 8.82538 16.4261 9.09261 17.1787 9.62705C17.9422 10.1615 18.324 10.9032 18.324 11.8521C18.324 12.2993 18.2476 12.6919 18.0949 13.0301C17.9531 13.3682 17.7732 13.6572 17.555 13.8972C17.3478 14.1262 17.0751 14.3934 16.737 14.6988C16.3334 15.0588 16.0389 15.3642 15.8535 15.615C15.6681 15.855 15.5754 16.1495 15.5754 16.4985H13.1049ZM14.3483 20.605C13.9011 20.605 13.5249 20.4632 13.2195 20.1796C12.925 19.8851 12.7777 19.5307 12.7777 19.1162C12.7777 18.7017 12.925 18.3582 13.2195 18.0855C13.5139 17.8019 13.8902 17.6601 14.3483 17.6601C14.8064 17.6601 15.1827 17.8019 15.4772 18.0855C15.7717 18.3582 15.919 18.7017 15.919 19.1162C15.919 19.5307 15.7663 19.8851 15.4609 20.1796C15.1664 20.4632 14.7955 20.605 14.3483 20.605Z" fill="#9777D0"/>
<path d="M20.7422 28.4842L24.7518 32.7552L31.8992 23.0801" stroke="#9777D0" stroke-width="2.72676" stroke-linecap="round" stroke-linejoin="round"/>
<path fill-rule="evenodd" clip-rule="evenodd" d="M14.9756 25.0339C14.8568 25.0379 14.7375 25.04 14.6177 25.04C8.90693 25.04 4.27744 20.4105 4.27744 14.6997C4.27744 8.98896 8.90693 4.35948 14.6177 4.35948C20.3284 4.35948 24.9579 8.98896 24.9579 14.6997C24.9579 15.2466 24.9155 15.7836 24.8337 16.3075C25.2895 16.2497 25.7536 16.2181 26.2242 16.2142C26.2883 15.7185 26.3213 15.2129 26.3213 14.6997C26.3213 8.23598 21.0814 2.99609 14.6177 2.99609C8.15395 2.99609 2.91406 8.23598 2.91406 14.6997C2.91406 21.1634 8.15395 26.4033 14.6177 26.4033C14.6501 26.4033 14.6824 26.4032 14.7147 26.4029C14.7749 25.9375 14.8624 25.4806 14.9756 25.0339Z" fill="#9777D0"/>
<path fill-rule="evenodd" clip-rule="evenodd" d="M26.3208 38.2577C32.0316 38.2577 36.661 33.6282 36.661 27.9175C36.661 22.2067 32.0316 17.5772 26.3208 17.5772C20.6101 17.5772 15.9806 22.2067 15.9806 27.9175C15.9806 33.6282 20.6101 38.2577 26.3208 38.2577ZM26.3208 39.6211C32.7845 39.6211 38.0244 34.3812 38.0244 27.9175C38.0244 21.4538 32.7845 16.2139 26.3208 16.2139C19.8571 16.2139 14.6172 21.4538 14.6172 27.9175C14.6172 34.3812 19.8571 39.6211 26.3208 39.6211Z" fill="#9777D0"/>
</g>
<defs>
<filter id="filter0_f_436_74" x="0.914062" y="0.996094" width="39.1094" height="40.625" filterUnits="userSpaceOnUse" color-interpolation-filters="sRGB">
<feFlood flood-opacity="0" result="BackgroundImageFix"/>
<feBlend mode="normal" in="SourceGraphic" in2="BackgroundImageFix" result="shape"/>
<feGaussianBlur stdDeviation="1" result="effect1_foregroundBlur_436_74"/>
</filter>
</defs>
</svg>
