<svg width="21" height="23" viewBox="0 0 21 23" fill="none" xmlns="http://www.w3.org/2000/svg">
<path fill-rule="evenodd" clip-rule="evenodd" d="M17.2232 4.933C18.0906 2.38139 19.2904 0.623351 20.103 0.8411C21.045 1.0935 21.1101 3.9049 20.2485 7.12055C19.9279 8.31694 19.5242 9.40072 19.0951 10.2771C20.2058 11.3881 20.8927 12.9227 20.8927 14.6178C20.8927 18.0086 18.1438 20.7575 14.753 20.7575C13.5607 20.7575 12.4477 20.4176 11.5058 19.8295C11.045 20.0429 10.5316 20.162 9.9904 20.162C7.99691 20.162 6.38086 18.546 6.38086 16.5525C6.38086 14.9796 7.38687 13.6417 8.79053 13.1472C9.38782 10.7174 11.4316 8.85629 13.9566 8.52926C13.864 7.87105 13.8027 7.15663 13.7804 6.40924C13.6808 3.08164 14.3903 0.360454 15.365 0.331291C16.2015 0.306264 16.9615 2.2719 17.2232 4.933Z" fill="#9777D0" fill-opacity="0.4"/>
<path fill-rule="evenodd" clip-rule="evenodd" d="M11.608 6.8893C12.4754 4.33769 13.6751 2.57965 14.4878 2.7974C15.4298 3.0498 15.4949 5.8612 14.6332 9.07685C14.3127 10.2732 13.909 11.357 13.4799 12.2334C14.5905 13.3444 15.2774 14.879 15.2774 16.5741C15.2774 19.9649 12.5286 22.7138 9.13774 22.7138C7.94543 22.7138 6.8325 22.3739 5.89054 21.7858C5.42976 21.9992 4.91637 22.1183 4.37517 22.1183C2.38167 22.1183 0.765625 20.5023 0.765625 18.5088C0.765625 16.9359 1.77163 15.598 3.1753 15.1035C3.77258 12.6736 5.81637 10.8126 8.34138 10.4856C8.24876 9.82734 8.18749 9.11293 8.16513 8.36553C8.06557 5.03794 8.77505 2.31675 9.74981 2.28759C10.5863 2.26256 11.3463 4.22819 11.608 6.8893Z" fill="#9777D0"/>
</svg>
