<svg width="45" height="48" viewBox="0 0 45 48" fill="none" xmlns="http://www.w3.org/2000/svg">
<g opacity="0.5" filter="url(#filter0_f_436_53)">
<path d="M32.4961 20.8135V27.2297" stroke="#7D47DD" stroke-width="1.27819" stroke-linecap="round" stroke-linejoin="round"/>
<path d="M19.7891 29.0718L26.2052 31.6764" stroke="#7D47DD" stroke-width="1.27819" stroke-linecap="round" stroke-linejoin="round"/>
<path d="M24.8715 17.1924L19.5352 20.1146" stroke="#7D47DD" stroke-width="1.27819" stroke-linecap="round" stroke-linejoin="round"/>
<circle cx="12.3724" cy="24.4544" r="8.21766" stroke="#9777D0" stroke-width="1.27819"/>
<circle cx="33.5599" cy="35.6468" r="8.21766" stroke="#9777D0" stroke-width="1.27819"/>
<circle cx="32.3841" cy="12.2488" r="8.21766" stroke="#9777D0" stroke-width="1.27819"/>
<path d="M35.0676 10.7557C34.5031 10.4296 33.8979 10.2195 33.2519 10.1254V15.4971H31.7279V10.1254C31.0819 10.2195 30.4736 10.4296 29.9029 10.7557L29.3854 9.61741C29.837 9.34773 30.3262 9.1439 30.853 9.00592C31.3798 8.86795 31.9223 8.79896 32.4805 8.79896C33.045 8.79896 33.5906 8.86795 34.1174 9.00592C34.6505 9.1439 35.1397 9.34773 35.585 9.61741L35.0676 10.7557Z" fill="#9777D0"/>
<path d="M15.209 21.1169V27.7021H13.732V26.9025C13.2804 27.5109 12.6156 27.815 11.7376 27.815C10.9599 27.815 10.3516 27.5704 9.91255 27.0813C9.47981 26.5858 9.26344 25.8834 9.26344 24.974V21.1169H10.7874V24.9269C10.7874 25.4538 10.9097 25.852 11.1543 26.1217C11.4052 26.3851 11.7439 26.5168 12.1703 26.5168C12.6282 26.5168 12.9951 26.3757 13.271 26.0935C13.547 25.805 13.6849 25.3816 13.6849 24.8235V21.1169H15.209Z" fill="#9777D0"/>
<path d="M33.2826 32.2439C34.2045 32.2439 34.9226 32.4697 35.4369 32.9213C35.9574 33.3728 36.2177 34.0063 36.2177 34.8216C36.2177 35.593 35.9825 36.1982 35.5122 36.6372C35.0481 37.0762 34.3958 37.2958 33.5554 37.2958C33.2794 37.2958 33.0098 37.2675 32.7464 37.2111C32.4892 37.1546 32.2101 37.0606 31.9091 36.9289V38.895H30.4039V35.0003C30.4039 34.116 30.6485 33.4356 31.1377 32.9589C31.6331 32.4823 32.3481 32.2439 33.2826 32.2439ZM33.292 36.148C33.7373 36.148 34.0791 36.0352 34.3174 35.8094C34.562 35.5836 34.6843 35.2637 34.6843 34.8498C34.6843 34.4296 34.562 34.1035 34.3174 33.8714C34.0791 33.6394 33.7467 33.5234 33.3202 33.5234C32.8749 33.5234 32.5269 33.6519 32.276 33.9091C32.0314 34.1662 31.9091 34.5268 31.9091 34.9909V35.7247C32.0972 35.8564 32.3105 35.9599 32.5488 36.0352C32.7934 36.1104 33.0411 36.148 33.292 36.148Z" fill="#9777D0"/>
</g>
<path d="M31.2188 19.5352V25.9513" stroke="#7D47DD" stroke-width="1.27819" stroke-linecap="round" stroke-linejoin="round"/>
<path d="M18.5117 27.7935L24.9279 30.3981" stroke="#7D47DD" stroke-width="1.27819" stroke-linecap="round" stroke-linejoin="round"/>
<path d="M23.5942 15.9141L18.2578 18.8363" stroke="#7D47DD" stroke-width="1.27819" stroke-linecap="round" stroke-linejoin="round"/>
<circle cx="11.095" cy="23.1761" r="8.21766" stroke="#9777D0" stroke-width="1.27819"/>
<circle cx="32.2825" cy="34.3685" r="8.21766" stroke="#9777D0" stroke-width="1.27819"/>
<circle cx="31.1068" cy="10.9705" r="8.21766" stroke="#9777D0" stroke-width="1.27819"/>
<path d="M33.7902 9.47739C33.2258 9.15126 32.6206 8.94116 31.9746 8.84709V14.2188H30.4506V8.84709C29.8046 8.94116 29.1962 9.15126 28.6255 9.47739L28.1081 8.33909C28.5597 8.06941 29.0489 7.86558 29.5757 7.7276C30.1025 7.58962 30.645 7.52064 31.2032 7.52064C31.7676 7.52064 32.3132 7.58962 32.8401 7.7276C33.3731 7.86558 33.8623 8.06941 34.3076 8.33909L33.7902 9.47739Z" fill="#9777D0"/>
<path d="M13.9316 19.8386V26.4238H12.4546V25.6242C12.0031 26.2325 11.3383 26.5367 10.4603 26.5367C9.68257 26.5367 9.07422 26.2921 8.63521 25.8029C8.20247 25.3075 7.98609 24.6051 7.98609 23.6957V19.8386H9.5101V23.6486C9.5101 24.1754 9.6324 24.5737 9.87699 24.8434C10.1279 25.1068 10.4665 25.2385 10.893 25.2385C11.3508 25.2385 11.7177 25.0974 11.9937 24.8152C12.2696 24.5267 12.4076 24.1033 12.4076 23.5451V19.8386H13.9316Z" fill="#9777D0"/>
<path d="M32.0052 30.9656C32.9272 30.9656 33.6453 31.1914 34.1595 31.643C34.6801 32.0945 34.9404 32.728 34.9404 33.5433C34.9404 34.3147 34.7052 34.9199 34.2348 35.3589C33.7707 35.7979 33.1185 36.0174 32.2781 36.0174C32.0021 36.0174 31.7324 35.9892 31.469 35.9328C31.2119 35.8763 30.9328 35.7822 30.6318 35.6505V37.6167H29.1266V33.722C29.1266 32.8377 29.3712 32.1572 29.8603 31.6806C30.3558 31.2039 31.0708 30.9656 32.0052 30.9656ZM32.0146 34.8697C32.4599 34.8697 32.8017 34.7568 33.0401 34.5311C33.2847 34.3053 33.407 33.9854 33.407 33.5715C33.407 33.1513 33.2847 32.8252 33.0401 32.5931C32.8017 32.3611 32.4693 32.245 32.0429 32.245C31.5976 32.245 31.2495 32.3736 30.9986 32.6307C30.754 32.8879 30.6318 33.2485 30.6318 33.7126V34.4464C30.8199 34.5781 31.0331 34.6816 31.2715 34.7568C31.5161 34.8321 31.7638 34.8697 32.0146 34.8697Z" fill="#9777D0"/>
<defs>
<filter id="filter0_f_436_53" x="0.959249" y="0.835714" width="44.0151" height="46.2241" filterUnits="userSpaceOnUse" color-interpolation-filters="sRGB">
<feFlood flood-opacity="0" result="BackgroundImageFix"/>
<feBlend mode="normal" in="SourceGraphic" in2="BackgroundImageFix" result="shape"/>
<feGaussianBlur stdDeviation="1.27819" result="effect1_foregroundBlur_436_53"/>
</filter>
</defs>
</svg>
