<svg width="24" height="16" viewBox="0 0 24 16" fill="none" xmlns="http://www.w3.org/2000/svg">
<path fill-rule="evenodd" clip-rule="evenodd" d="M11.2814 8.73324C11.2814 11.661 8.90804 14.0344 5.98032 14.0344C3.05259 14.0344 0.679199 11.661 0.679199 8.73324C0.679199 8.20962 0.755118 7.70372 0.89655 7.22597C0.436834 6.83229 0.145508 6.24764 0.145508 5.59494C0.145508 4.40949 1.10651 3.44849 2.29196 3.44849C2.82061 3.44849 3.30463 3.6396 3.67868 3.95651C4.37479 3.62048 5.15556 3.43213 5.98032 3.43213C6.80501 3.43213 7.58572 3.62045 8.2818 3.95643C8.65584 3.63957 9.13982 3.44849 9.66843 3.44849C10.8539 3.44849 11.8149 4.40949 11.8149 5.59494C11.8149 6.24755 11.5236 6.83213 11.064 7.2258C11.2055 7.70361 11.2814 8.20956 11.2814 8.73324Z" fill="#9777D0"/>
<path fill-rule="evenodd" clip-rule="evenodd" d="M14.1987 2.10051C14.3006 1.90441 14.3583 1.68156 14.3583 1.44525C14.3583 0.659735 13.7215 0.0229492 12.936 0.0229492C12.1505 0.0229492 11.5137 0.659735 11.5137 1.44525C11.5137 2.20262 12.1056 2.82172 12.8521 2.86512L12.3339 4.27212C12.2384 4.53124 12.3711 4.81868 12.6302 4.91413C12.8893 5.00958 13.1768 4.87689 13.2722 4.61777L14.1899 2.1266C14.193 2.11793 14.196 2.10923 14.1987 2.10051Z" fill="#9777D0"/>
<path fill-rule="evenodd" clip-rule="evenodd" d="M17.1996 2.10051C17.3016 1.90441 17.3592 1.68156 17.3592 1.44525C17.3592 0.659735 16.7225 0.0229492 15.9369 0.0229492C15.1514 0.0229492 14.5146 0.659735 14.5146 1.44525C14.5146 2.20262 15.1066 2.82172 15.8531 2.86512L15.3348 4.27212C15.2394 4.53124 15.3721 4.81868 15.6312 4.91413C15.8903 5.00958 16.1777 4.87689 16.2732 4.61777L17.1908 2.1266C17.194 2.11793 17.197 2.10923 17.1996 2.10051Z" fill="#9777D0"/>
<path d="M19.888 12.6411C18.9938 12.6411 18.3161 12.442 17.855 12.0438C17.4009 11.6455 17.1739 11.0587 17.1739 10.2832V6.84602H18.7982V8.75326C18.9728 8.62751 19.1964 8.5297 19.4688 8.45984C19.7483 8.38997 20.0592 8.35504 20.4015 8.35504C21.1071 8.35504 21.659 8.5297 22.0572 8.87901C22.4554 9.22832 22.6545 9.73831 22.6545 10.409C22.6545 11.1286 22.4065 11.6805 21.9105 12.0647C21.4215 12.449 20.7473 12.6411 19.888 12.6411ZM19.888 11.4884C20.2373 11.4884 20.5063 11.394 20.6949 11.2054C20.8905 11.0168 20.9883 10.7618 20.9883 10.4404C20.9883 10.133 20.894 9.89201 20.7054 9.71735C20.5237 9.5427 20.2618 9.45537 19.9194 9.45537C19.6679 9.45537 19.4444 9.50078 19.2488 9.5916C19.0532 9.68242 18.903 9.81167 18.7982 9.97933V10.4404C18.7982 10.7688 18.8925 11.0273 19.0811 11.2159C19.2767 11.3975 19.5457 11.4884 19.888 11.4884Z" fill="#9777D0"/>
</svg>
