<svg width="37" height="8" viewBox="0 0 37 8" fill="none" xmlns="http://www.w3.org/2000/svg">
<path d="M2.8531 0.448492C3.6371 0.448492 4.24777 0.640492 4.6851 1.02449C5.12777 1.40849 5.3491 1.94716 5.3491 2.64049C5.3491 3.29649 5.1491 3.81116 4.7491 4.18449C4.35443 4.55783 3.79977 4.74449 3.0851 4.74449C2.85043 4.74449 2.6211 4.72049 2.3971 4.67249C2.17843 4.62449 1.9411 4.54449 1.6851 4.43249V6.10449H0.405102V2.79249C0.405102 2.04049 0.613102 1.46183 1.0291 1.05649C1.45044 0.651159 2.05844 0.448492 2.8531 0.448492ZM2.8611 3.76849C3.23977 3.76849 3.53044 3.67249 3.7331 3.48049C3.9411 3.28849 4.0451 3.01649 4.0451 2.66449C4.0451 2.30716 3.9411 2.02983 3.7331 1.83249C3.53044 1.63516 3.24777 1.53649 2.8851 1.53649C2.50644 1.53649 2.21044 1.64583 1.9971 1.86449C1.7891 2.08316 1.6851 2.38983 1.6851 2.78449V3.40849C1.8451 3.52049 2.02644 3.60849 2.2291 3.67249C2.4371 3.73649 2.64777 3.76849 2.8611 3.76849ZM8.14823 6.16849C7.69489 6.16849 7.28689 6.07516 6.92423 5.88849C6.56689 5.69649 6.28689 5.43249 6.08423 5.09649C5.88156 4.76049 5.78023 4.37916 5.78023 3.95249C5.78023 3.52583 5.88156 3.14449 6.08423 2.80849C6.28689 2.47249 6.56689 2.21116 6.92423 2.02449C7.28689 1.83249 7.69489 1.73649 8.14823 1.73649C8.60156 1.73649 9.00689 1.83249 9.36423 2.02449C9.72156 2.21116 10.0016 2.47249 10.2042 2.80849C10.4069 3.14449 10.5082 3.52583 10.5082 3.95249C10.5082 4.37916 10.4069 4.76049 10.2042 5.09649C10.0016 5.43249 9.72156 5.69649 9.36423 5.88849C9.00689 6.07516 8.60156 6.16849 8.14823 6.16849ZM8.14823 5.14449C8.46823 5.14449 8.72956 5.03783 8.93223 4.82449C9.14023 4.60583 9.24423 4.31516 9.24423 3.95249C9.24423 3.58983 9.14023 3.30183 8.93223 3.08849C8.72956 2.86983 8.46823 2.76049 8.14823 2.76049C7.82823 2.76049 7.56423 2.86983 7.35623 3.08849C7.14823 3.30183 7.04423 3.58983 7.04423 3.95249C7.04423 4.31516 7.14823 4.60583 7.35623 4.82449C7.56423 5.03783 7.82823 5.14449 8.14823 5.14449ZM15.7586 1.80049V5.38449C15.7586 6.17383 15.5533 6.76049 15.1426 7.14449C14.7319 7.52849 14.1319 7.72049 13.3426 7.72049C12.9266 7.72049 12.5319 7.66983 12.1586 7.56849C11.7853 7.46716 11.4759 7.32049 11.2306 7.12849L11.7266 6.23249C11.9079 6.38183 12.1373 6.49916 12.4146 6.58449C12.6919 6.67516 12.9693 6.72049 13.2466 6.72049C13.6786 6.72049 13.9959 6.62183 14.1986 6.42449C14.4066 6.23249 14.5106 5.93916 14.5106 5.54449V5.36049C14.1853 5.71783 13.7319 5.89649 13.1506 5.89649C12.7559 5.89649 12.3933 5.81116 12.0626 5.64049C11.7373 5.46449 11.4786 5.21916 11.2866 4.90449C11.0946 4.58983 10.9986 4.22716 10.9986 3.81649C10.9986 3.40583 11.0946 3.04316 11.2866 2.72849C11.4786 2.41383 11.7373 2.17116 12.0626 2.00049C12.3933 1.82449 12.7559 1.73649 13.1506 1.73649C13.7746 1.73649 14.2493 1.94183 14.5746 2.35249V1.80049H15.7586ZM13.3986 4.87249C13.7293 4.87249 13.9986 4.77649 14.2066 4.58449C14.4199 4.38716 14.5266 4.13116 14.5266 3.81649C14.5266 3.50183 14.4199 3.24849 14.2066 3.05649C13.9986 2.85916 13.7293 2.76049 13.3986 2.76049C13.0679 2.76049 12.7959 2.85916 12.5826 3.05649C12.3693 3.24849 12.2626 3.50183 12.2626 3.81649C12.2626 4.13116 12.3693 4.38716 12.5826 4.58449C12.7959 4.77649 13.0679 4.87249 13.3986 4.87249Z" fill="#9777D0"/>
<path d="M21.2084 1.80049V6.10449H20.0164V5.60049C19.8564 5.78716 19.659 5.92849 19.4244 6.02449C19.195 6.12049 18.9497 6.16849 18.6884 6.16849C18.123 6.16849 17.6724 6.00583 17.3364 5.68049C17.0057 5.35516 16.8404 4.87249 16.8404 4.23249V1.80049H18.0884V4.04849C18.0884 4.74183 18.379 5.08849 18.9604 5.08849C19.2644 5.08849 19.507 4.99249 19.6884 4.80049C19.8697 4.60316 19.9604 4.31249 19.9604 3.92849V1.80049H21.2084ZM22.3979 1.80049H23.6379V3.48049H25.5099V1.80049H26.7579V6.10449H25.5099V4.49649H23.6379V6.10449H22.3979V1.80049ZM32.2965 1.80049V6.10449H31.1045V5.60849C30.7952 5.98183 30.3472 6.16849 29.7605 6.16849C29.3552 6.16849 28.9872 6.07783 28.6565 5.89649C28.3312 5.71516 28.0752 5.45649 27.8885 5.12049C27.7019 4.78449 27.6085 4.39516 27.6085 3.95249C27.6085 3.50983 27.7019 3.12049 27.8885 2.78449C28.0752 2.44849 28.3312 2.18983 28.6565 2.00849C28.9872 1.82716 29.3552 1.73649 29.7605 1.73649C30.3099 1.73649 30.7392 1.90983 31.0485 2.25649V1.80049H32.2965ZM29.9765 5.14449C30.2912 5.14449 30.5525 5.03783 30.7605 4.82449C30.9685 4.60583 31.0725 4.31516 31.0725 3.95249C31.0725 3.58983 30.9685 3.30183 30.7605 3.08849C30.5525 2.86983 30.2912 2.76049 29.9765 2.76049C29.6565 2.76049 29.3925 2.86983 29.1845 3.08849C28.9765 3.30183 28.8725 3.58983 28.8725 3.95249C28.8725 4.31516 28.9765 4.60583 29.1845 4.82449C29.3925 5.03783 29.6565 5.14449 29.9765 5.14449ZM33.924 6.16849C33.7053 6.16849 33.5213 6.09383 33.372 5.94449C33.2226 5.79516 33.148 5.60849 33.148 5.38449C33.148 5.15516 33.2226 4.97116 33.372 4.83249C33.5213 4.68849 33.7053 4.61649 33.924 4.61649C34.1426 4.61649 34.3266 4.68849 34.476 4.83249C34.6253 4.97116 34.7 5.15516 34.7 5.38449C34.7 5.60849 34.6253 5.79516 34.476 5.94449C34.3266 6.09383 34.1426 6.16849 33.924 6.16849ZM36.0177 6.16849C35.7991 6.16849 35.6151 6.09383 35.4657 5.94449C35.3164 5.79516 35.2417 5.60849 35.2417 5.38449C35.2417 5.15516 35.3164 4.97116 35.4657 4.83249C35.6151 4.68849 35.7991 4.61649 36.0177 4.61649C36.2364 4.61649 36.4204 4.68849 36.5697 4.83249C36.7191 4.97116 36.7937 5.15516 36.7937 5.38449C36.7937 5.60849 36.7191 5.79516 36.5697 5.94449C36.4204 6.09383 36.2364 6.16849 36.0177 6.16849Z" fill="#9777D0" fill-opacity="0.4"/>
</svg>
